<svg width="64" height="63" viewBox="0 0 64 63" fill="none" xmlns="http://www.w3.org/2000/svg">
<path d="M50.1682 14.1994C49.3051 14.1994 48.4773 14.5423 47.867 15.1526C47.2566 15.763 46.9138 16.5908 46.9138 17.4539V29.4043H44.7528V10.945C44.7528 10.0818 44.4099 9.25405 43.7996 8.64372C43.1892 8.03339 42.3615 7.69051 41.4983 7.69051C40.6352 7.69051 39.8074 8.03339 39.1971 8.64372C38.5867 9.25405 38.2439 10.0818 38.2439 10.945V29.4043H36.0569V8.78401C36.0569 7.92087 35.714 7.09308 35.1037 6.48275C34.4933 5.87242 33.6655 5.52954 32.8024 5.52954C31.9393 5.52954 31.1115 5.87242 30.5011 6.48275C29.8908 7.09308 29.5479 7.92087 29.5479 8.78401V29.4043H27.387V14.1994C27.387 13.3363 27.0441 12.5085 26.4338 11.8982C25.8234 11.2878 24.9956 10.945 24.1325 10.945C23.2694 10.945 22.4416 11.2878 21.8313 11.8982C21.2209 12.5085 20.878 13.3363 20.878 14.1994V40.0529L11.5312 34.8458C11.137 34.6118 10.6879 34.486 10.2294 34.4813C9.59658 34.4822 8.98572 34.7136 8.51108 35.1322L5.69922 37.7357L22.7266 54.9974C23.5284 55.8224 24.4877 56.4779 25.5477 56.9252C26.6076 57.3724 27.7466 57.6022 28.897 57.601H44.7528C47.0522 57.601 49.2574 56.6875 50.8833 55.0616C52.5093 53.4357 53.4227 51.2305 53.4227 48.9311V17.4539C53.4227 16.5908 53.0798 15.763 52.4695 15.1526C51.8591 14.5423 51.0314 14.1994 50.1682 14.1994ZM27.387 39.376C26.872 39.376 26.3687 39.2233 25.9405 38.9372C25.5123 38.6511 25.1786 38.2445 24.9816 37.7687C24.7845 37.293 24.733 36.7695 24.8334 36.2645C24.9339 35.7594 25.1819 35.2955 25.546 34.9314C25.9101 34.5673 26.374 34.3193 26.879 34.2189C27.3841 34.1184 27.9076 34.17 28.3833 34.367C28.8591 34.5641 29.2657 34.8978 29.5518 35.3259C29.8378 35.7541 29.9905 36.2575 29.9905 36.7724C29.9905 37.4629 29.7162 38.1251 29.228 38.6134C28.7397 39.1017 28.0775 39.376 27.387 39.376ZM32.5941 47.1867C32.0792 47.1867 31.5758 47.034 31.1476 46.7479C30.7195 46.4618 30.3858 46.0552 30.1887 45.5795C29.9917 45.1037 29.9401 44.5802 30.0406 44.0752C30.141 43.5701 30.389 43.1062 30.7531 42.7421C31.1172 42.378 31.5811 42.13 32.0862 42.0296C32.5912 41.9291 33.1147 41.9807 33.5905 42.1777C34.0662 42.3748 34.4728 42.7085 34.7589 43.1366C35.045 43.5648 35.1977 44.0682 35.1977 44.5831C35.1977 45.2736 34.9234 45.9359 34.4351 46.4241C33.9469 46.9124 33.2846 47.1867 32.5941 47.1867ZM45.612 41.9795C45.097 41.9795 44.5937 41.8268 44.1655 41.5408C43.7373 41.2547 43.4036 40.8481 43.2066 40.3723C43.0095 39.8966 42.958 39.3731 43.0584 38.868C43.1589 38.363 43.4069 37.8991 43.771 37.535C44.1351 37.1709 44.599 36.9229 45.104 36.8224C45.6091 36.722 46.1326 36.7735 46.6083 36.9706C47.0841 37.1676 47.4907 37.5013 47.7768 37.9295C48.0628 38.3577 48.2155 38.861 48.2155 39.376C48.2155 40.0665 47.9412 40.7287 47.453 41.217C46.9647 41.7052 46.3025 41.9795 45.612 41.9795ZM43.0084 49.7903C42.4935 49.7903 41.9901 49.6376 41.5619 49.3515C41.1338 49.0654 40.8001 48.6588 40.603 48.183C40.406 47.7073 40.3544 47.1838 40.4549 46.6788C40.5553 46.1737 40.8033 45.7098 41.1674 45.3457C41.5315 44.9816 41.9954 44.7336 42.5005 44.6331C43.0055 44.5327 43.529 44.5842 44.0047 44.7813C44.4805 44.9784 44.8871 45.3121 45.1732 45.7402C45.4593 46.1684 45.612 46.6717 45.612 47.1867C45.612 47.8772 45.3377 48.5394 44.8494 49.0277C44.3611 49.516 43.6989 49.7903 43.0084 49.7903ZM37.8013 39.376C37.2863 39.376 36.7829 39.2233 36.3548 38.9372C35.9266 38.6511 35.5929 38.2445 35.3959 37.7687C35.1988 37.293 35.1473 36.7695 35.2477 36.2645C35.3482 35.7594 35.5961 35.2955 35.9603 34.9314C36.3244 34.5673 36.7883 34.3193 37.2933 34.2189C37.7984 34.1184 38.3219 34.17 38.7976 34.367C39.2733 34.5641 39.68 34.8978 39.966 35.3259C40.2521 35.7541 40.4048 36.2575 40.4048 36.7724C40.4048 37.4629 40.1305 38.1251 39.6423 38.6134C39.154 39.1017 38.4918 39.376 37.8013 39.376Z" fill="white"/>
</svg>
