<svg width="63" height="64" viewBox="0 0 63 64" fill="none" xmlns="http://www.w3.org/2000/svg">
<g clip-path="url(#clip0_275_421)">
<path d="M54.6711 18.5332H54.4636C54.279 17.9747 53.9707 17.4651 53.5615 17.0424C53.1524 16.6198 52.6531 16.295 52.1009 16.0924L32.5741 9.01392C31.7114 8.70141 30.7665 8.70141 29.9038 9.01392L10.377 16.1143C9.82479 16.317 9.32548 16.6418 8.91635 17.0644C8.50723 17.4871 8.19886 17.9967 8.01428 18.5552H7.80681C5.73908 18.5552 3.75571 19.3751 2.29155 20.8351C0.827388 22.2952 0.00190924 24.2762 -0.00390625 26.3439L-0.00390625 32.202C-0.00390625 34.2735 0.819006 36.2602 2.2838 37.725C3.74859 39.1898 5.73528 40.0127 7.80681 40.0127H9.07361C10.8286 43.8692 14.3922 47.1961 19.6254 49.8151C23.2012 51.5688 26.9868 52.8575 30.8899 53.6497C31.1207 53.692 31.3572 53.692 31.588 53.6497C35.4911 52.8575 39.2767 51.5688 42.8525 49.8151C48.0857 47.1961 51.6396 43.8692 53.4043 40.0127H54.6711C56.7426 40.0127 58.7293 39.1898 60.1941 37.725C61.6589 36.2602 62.4818 34.2735 62.4818 32.202V26.3439C62.4818 24.2724 61.6589 22.2857 60.1941 20.8209C58.7293 19.3561 56.7426 18.5332 54.6711 18.5332ZM7.80681 36.1073C6.77104 36.1073 5.7777 35.6959 5.0453 34.9635C4.31291 34.2311 3.90145 33.2377 3.90145 32.202V26.3439C3.90145 25.3082 4.31291 24.3148 5.0453 23.5824C5.7777 22.85 6.77104 22.4386 7.80681 22.4386V34.1547C7.80702 34.8078 7.85188 35.4603 7.94105 36.1073H7.80681ZM41.0023 36.1073H21.4756C20.9577 36.1073 20.461 35.9016 20.0948 35.5354C19.7286 35.1692 19.5229 34.6725 19.5229 34.1547C19.5229 33.6368 19.7286 33.1401 20.0948 32.7739C20.461 32.4077 20.9577 32.202 21.4756 32.202H41.0023C41.5202 32.202 42.0169 32.4077 42.3831 32.7739C42.7493 33.1401 42.955 33.6368 42.955 34.1547C42.955 34.6725 42.7493 35.1692 42.3831 35.5354C42.0169 35.9016 41.5202 36.1073 41.0023 36.1073ZM41.0023 28.2966H21.4756C20.9577 28.2966 20.461 28.0909 20.0948 27.7247C19.7286 27.3585 19.5229 26.8618 19.5229 26.3439C19.5229 25.8261 19.7286 25.3294 20.0948 24.9632C20.461 24.597 20.9577 24.3913 21.4756 24.3913H41.0023C41.5202 24.3913 42.0169 24.597 42.3831 24.9632C42.7493 25.3294 42.955 25.8261 42.955 26.3439C42.955 26.8618 42.7493 27.3585 42.3831 27.7247C42.0169 28.0909 41.5202 28.2966 41.0023 28.2966ZM58.5765 32.202C58.5765 33.2377 58.165 34.2311 57.4326 34.9635C56.7002 35.6959 55.7069 36.1073 54.6711 36.1073H54.5368C54.626 35.4603 54.6709 34.8078 54.6711 34.1547V22.4386C55.7069 22.4386 56.7002 22.85 57.4326 23.5824C58.165 24.3148 58.5765 25.3082 58.5765 26.3439V32.202Z" fill="white"/>
</g>
<defs>
<clipPath id="clip0_275_421">
<rect width="62.4857" height="62.4857" fill="white" transform="translate(-0.00390625 0.959229)"/>
</clipPath>
</defs>
</svg>
