<svg width="64" height="63" viewBox="0 0 64 63" fill="none" xmlns="http://www.w3.org/2000/svg">
<path fill-rule="evenodd" clip-rule="evenodd" d="M13.4349 11.5973C13.3705 11.3003 13.1919 11.0406 12.9377 10.8742C12.6835 10.7077 12.3739 10.648 12.076 10.7078C11.7781 10.7676 11.5156 10.9422 11.3454 11.1939C11.1751 11.4456 11.1106 11.7541 11.1659 12.053C11.257 12.4591 11.3885 12.8679 11.5486 13.287C11.8246 14.0082 12.2828 15.0028 13.0196 16.151C14.1392 17.8915 15.8901 19.9665 18.6004 21.9765L19.2981 22.4946L19.0872 23.3381C18.7213 24.795 18.532 26.2907 18.5236 27.7928V27.8189C18.5236 28.7379 18.6407 29.5216 18.849 30.2103C18.885 30.2075 18.921 30.2061 18.9571 30.2064H44.9928C45.0292 30.2064 45.0657 30.2077 45.1008 30.2103C45.3091 29.5216 45.4263 28.7392 45.4263 27.8202C45.4263 26.1331 45.1724 24.5761 44.8626 23.3381L44.6517 22.4946L45.3495 21.9765C48.0585 19.9665 49.8107 17.8915 50.9289 16.151C51.7764 14.8323 52.4885 13.4433 52.7814 12.0582C52.8354 11.7603 52.7705 11.4532 52.6008 11.2025C52.431 10.9519 52.1698 10.7778 51.8731 10.7175C51.5765 10.6573 51.268 10.7156 51.0139 10.8801C50.7598 11.0445 50.5802 11.302 50.5137 11.5973L50.511 11.6143L50.5058 11.6338V11.6364C50.4538 11.8551 50.1114 13.1438 48.9828 14.9C47.9153 16.561 46.1266 18.6647 43.1703 20.6877L42.6782 21.0249L42.1015 20.8726C39.5669 20.2021 36.2135 19.494 33.2481 19.3234H33.2442C32.3983 19.2725 31.5502 19.2725 30.7044 19.3234H30.7005C27.735 19.4953 24.3816 20.2021 21.8483 20.8726L21.2716 21.0249L20.7796 20.6877C17.8245 18.6647 16.0359 16.561 14.9671 14.9C14.4661 14.1318 14.0452 13.3144 13.7109 12.4604C13.6033 12.1898 13.5137 11.9123 13.4427 11.6299L13.4388 11.6143L13.4349 11.5973ZM15.9786 11.0389C15.7676 10.0698 15.1823 9.22336 14.3502 8.68372C13.5182 8.14407 12.5066 7.95494 11.5358 8.15749C10.5649 8.36004 9.71337 8.93786 9.16648 9.76519C8.61959 10.5925 8.42163 11.6024 8.61568 12.575L8.61829 12.588L8.62219 12.601C8.74716 13.1673 8.9216 13.7075 9.11687 14.2178C9.45143 15.09 9.98646 16.246 10.83 17.5582C12.0107 19.395 13.7721 21.5026 16.3691 23.5464C16.0767 24.9414 15.9263 26.3624 15.92 27.7876V27.8202C15.92 30.2871 16.606 32.1447 17.6969 33.6886C18.7345 35.1544 20.1209 36.3026 21.4174 37.3753L21.4825 37.4274C23.1853 38.8372 24.8229 40.2054 26.0739 42.2375C27.3067 44.2422 28.2141 46.9864 28.2141 51.1807C28.2141 52.1782 28.6103 53.1348 29.3156 53.8401C30.0209 54.5454 30.9775 54.9416 31.9749 54.9416C32.9724 54.9416 33.929 54.5454 34.6343 53.8401C35.3396 53.1348 35.7358 52.1782 35.7358 51.1807C35.7358 46.9864 36.6431 44.2422 37.8759 42.2375C39.1269 40.2054 40.7659 38.8372 42.4686 37.4287L42.5324 37.3766C43.829 36.3026 45.2141 35.1544 46.2529 33.6886C47.3438 32.1447 48.0298 30.2871 48.0298 27.8202C48.0298 26.2502 47.8398 24.7896 47.5807 23.5477C50.1778 21.5026 51.9391 19.395 53.1198 17.5595C54.0363 16.1314 54.9423 14.4287 55.3316 12.5867L55.3342 12.5737C55.5282 11.6011 55.3303 10.5912 54.7834 9.76389C54.2365 8.93656 53.3849 8.35873 52.4141 8.15619C51.4432 7.95364 50.4317 8.14277 49.5996 8.68241C48.7675 9.22206 48.1823 10.0685 47.9713 11.0376C47.9465 11.1339 47.6823 12.1076 46.7919 13.4914C45.9587 14.7893 44.545 16.4959 42.1796 18.2039C39.6411 17.5569 36.3789 16.8969 33.3991 16.7251C32.4496 16.6679 31.4976 16.6679 30.5482 16.7251C27.5697 16.8969 24.3087 17.5582 21.7702 18.2026C19.4049 16.4959 17.9911 14.7893 17.1567 13.4914C16.7528 12.8742 16.413 12.2173 16.1426 11.5309C16.0779 11.3704 16.0231 11.2061 15.9786 11.0389Z" fill="white"/>
</svg>
