<svg width="63" height="63" viewBox="0 0 63 63" fill="none" xmlns="http://www.w3.org/2000/svg">
<path d="M15.6194 41.9226C14.0573 41.9226 13.0158 42.9641 13.0158 44.5262C13.0158 46.0883 14.0573 47.1298 15.6194 47.1298C17.1816 47.1298 18.223 46.0883 18.223 44.5262C18.223 42.9641 17.1816 41.9226 15.6194 41.9226ZM5.20513 44.5262C3.64299 44.5262 2.60156 45.5676 2.60156 47.1298C2.60156 48.6919 3.64299 49.7333 5.20513 49.7333C6.76728 49.7333 7.80871 48.6919 7.80871 47.1298C7.80871 45.5676 6.76728 44.5262 5.20513 44.5262ZM13.0158 52.3369C11.4537 52.3369 10.4123 53.3783 10.4123 54.9405C10.4123 56.5026 11.4537 57.5441 13.0158 57.5441C14.578 57.5441 15.6194 56.5026 15.6194 54.9405C15.6194 53.3783 14.578 52.3369 13.0158 52.3369ZM42.1759 5.47263C31.7616 5.21227 23.4301 13.023 23.1698 23.4373V23.958L18.4833 33.8516C17.9626 35.1533 18.4833 36.7155 19.7851 37.2362C20.0455 37.4966 20.5662 37.4966 20.8266 37.4966H23.1698V42.183C23.1698 45.0469 25.513 47.1298 28.1166 47.1298H30.4598V51.8162C30.4598 53.3783 31.5012 54.4198 33.0634 54.4198H55.7144C57.0162 53.8991 57.7973 52.5973 57.5369 51.2955L55.1937 43.4848L59.8801 25.7805V24.4787C59.8801 14.3248 52.0694 5.99334 42.1759 5.47263Z" fill="white"/>
</svg>
