<svg width="64" height="64" viewBox="0 0 64 64" fill="none" xmlns="http://www.w3.org/2000/svg">
<path fill-rule="evenodd" clip-rule="evenodd" d="M15.044 8.34112C14.6987 8.34112 14.3676 8.20397 14.1235 7.95984C13.8793 7.7157 13.7422 7.38459 13.7422 7.03933C13.7422 6.69408 13.8793 6.36297 14.1235 6.11883C14.3676 5.8747 14.6987 5.73755 15.044 5.73755H30.6654C31.0107 5.73755 31.3418 5.8747 31.5859 6.11883C31.83 6.36297 31.9672 6.69408 31.9672 7.03933C31.9672 6.69408 32.1043 6.36297 32.3485 6.11883C32.5926 5.8747 32.9237 5.73755 33.269 5.73755H48.8904C49.2357 5.73755 49.5668 5.8747 49.8109 6.11883C50.055 6.36297 50.1922 6.69408 50.1922 7.03933C50.1922 7.38459 50.055 7.7157 49.8109 7.95984C49.5668 8.20397 49.2357 8.34112 48.8904 8.34112H33.269V47.5587C34.4933 47.8786 35.5593 48.6332 36.268 49.6815C36.9767 50.7298 37.2797 52.0003 37.1202 53.2556C36.9608 54.511 36.3499 55.6653 35.4017 56.5033C34.4534 57.3412 33.2326 57.8053 31.9672 57.809C30.6989 57.8102 29.4738 57.3486 28.5217 56.5106C27.5697 55.6727 26.9562 54.5161 26.7964 53.2579C26.6366 51.9997 26.9415 50.7265 27.6539 49.6771C28.3662 48.6278 29.4371 47.8745 30.6654 47.5587V8.34112H15.044ZM29.3636 52.6018C29.3636 51.9113 29.6379 51.2491 30.1262 50.7608C30.6145 50.2726 31.2767 49.9983 31.9672 49.9983C32.6577 49.9983 33.3199 50.2726 33.8082 50.7608C34.2965 51.2491 34.5708 51.9113 34.5708 52.6018C34.5708 53.2923 34.2965 53.9546 33.8082 54.4428C33.3199 54.9311 32.6577 55.2054 31.9672 55.2054C31.2767 55.2054 30.6145 54.9311 30.1262 54.4428C29.6379 53.9546 29.3636 53.2923 29.3636 52.6018Z" fill="white"/>
</svg>
