<svg width="64" height="64" viewBox="0 0 64 64" fill="none" xmlns="http://www.w3.org/2000/svg">
<path fill-rule="evenodd" clip-rule="evenodd" d="M16.8119 23.9626C16.8119 16.0543 23.7165 9.643 32.2328 9.643C40.7491 9.643 47.6538 16.0543 47.6538 23.9626C47.6538 28.9185 44.9435 33.2873 40.8194 35.8597C37.3189 38.0415 33.6335 41.4769 33.6335 45.9771V46.093C33.6335 50.4071 29.8688 53.9037 25.224 53.9037C20.5766 53.9037 16.8119 50.4071 16.8119 46.093V43.4894H14.0078V46.093C14.0078 51.8443 19.0288 56.5073 25.2227 56.5073C31.4166 56.5073 36.4389 51.8443 36.4389 46.093V45.9771C36.4389 42.8476 39.0594 40.0931 42.3815 38.0206C47.2502 34.9849 50.4578 29.822 50.4578 23.9626C50.4578 14.6158 42.2982 7.03943 32.2328 7.03943C22.1674 7.03943 14.0078 14.6158 14.0078 23.9626H16.8119ZM30.931 18.7555C28.3951 18.7555 26.3383 20.4673 25.8397 22.6869H25.8762C26.9345 22.7416 28.373 22.8926 29.831 23.2909C31.2773 23.6867 32.8407 24.3532 34.0579 25.5001C35.3128 26.6834 36.1382 28.3236 36.1382 30.482C36.1382 30.521 36.1369 30.5601 36.133 30.5991C35.9429 32.695 35.43 34.2962 34.6528 35.4965C33.864 36.7162 32.8486 37.453 31.7863 37.8709C30.7475 38.2797 29.706 38.3682 28.8586 38.3682C28.4329 38.3682 28.0398 38.3448 27.7156 38.3252L27.5867 38.3161C27.4566 38.3071 27.3265 38.2993 27.1962 38.2927C27.1776 38.3257 27.1598 38.3591 27.1428 38.3929C27.0049 38.6778 26.8845 38.9708 26.7822 39.2703C26.6989 39.4969 26.6039 39.7572 26.4789 40.0696C26.2055 40.7531 25.8137 41.6031 25.155 42.2827C24.4468 43.0104 23.4835 43.4894 22.2234 43.4894C21.1325 43.4894 20.229 43.2395 19.5209 42.7539C18.9007 42.3285 18.431 41.718 18.1787 41.0095C17.9998 40.5065 17.9099 39.9761 17.9132 39.4422C17.9131 39.2043 17.9305 38.9667 17.9652 38.7314L17.9691 38.7132L17.9704 38.7067V38.7028C17.9704 38.7015 17.9704 38.7002 19.2514 38.9345L20.5324 39.1675V39.1636L20.5337 39.1597L20.5285 39.2092C20.4981 39.5141 20.5305 39.8219 20.6235 40.1139C20.6892 40.3124 20.8175 40.4842 20.9893 40.6034C21.1715 40.7283 21.5321 40.8846 22.2234 40.8846C22.7467 40.8846 23.0461 40.714 23.2869 40.4667C23.5746 40.1699 23.8142 39.7195 24.0615 39.1011C24.1214 38.9514 24.1878 38.7718 24.2594 38.5791C24.4286 38.1235 24.6265 37.5897 24.827 37.2018C24.8751 37.1072 24.9272 37.0147 24.9832 36.9245C25.707 35.0721 26.8278 31.828 26.3748 30.4703C26.0715 29.5616 25.487 28.653 24.948 27.9409C24.2919 27.3915 23.792 26.8604 23.49 26.2251C23.1177 25.4389 23.119 24.6174 23.1203 23.8624V23.7283C23.1203 19.5001 26.6625 16.1519 30.931 16.1519C35.1996 16.1519 38.7417 19.5001 38.7417 23.7283H36.1382C36.1382 21.0271 33.8522 18.7555 30.931 18.7555ZM27.2756 38.1781L27.2639 38.1912C27.2675 38.1862 27.2719 38.1818 27.2769 38.1781" fill="white"/>
</svg>
