<svg width="64" height="64" viewBox="0 0 64 64" fill="none" xmlns="http://www.w3.org/2000/svg">
<path d="M22.8634 16.4173C22.1729 16.4173 21.5107 16.6916 21.0224 17.1799C20.5341 17.6681 20.2598 18.3304 20.2598 19.0209C20.2598 19.3661 20.1227 19.6972 19.8785 19.9414C19.6344 20.1855 19.3033 20.3226 18.958 20.3226C18.6128 20.3226 18.2817 20.1855 18.0375 19.9414C17.7934 19.6972 17.6562 19.3661 17.6562 19.0209C17.6562 17.6398 18.2049 16.3154 19.1814 15.3389C20.1579 14.3623 21.4824 13.8137 22.8634 13.8137C23.2086 13.8137 23.5398 13.9509 23.7839 14.195C24.028 14.4391 24.1652 14.7703 24.1652 15.1155C24.1652 15.4608 24.028 15.7919 23.7839 16.036C23.5398 16.2801 23.2086 16.4173 22.8634 16.4173Z" fill="white"/>
<path fill-rule="evenodd" clip-rule="evenodd" d="M13.0406 47.6602V41.1486C13.0406 40.6618 12.6579 39.8456 12.2361 38.946C11.7206 37.846 11.1465 36.621 11.1465 35.7254C11.1465 34.8298 11.7193 33.6048 12.2361 32.5048C12.6579 31.6066 13.0406 30.7903 13.0406 30.3022V29.7593C13.0406 29.2725 12.6579 28.5656 12.2361 27.7871C11.7206 26.8342 11.1465 25.7746 11.1465 24.8789C11.1465 23.9833 11.7193 22.7583 12.2361 21.6583C12.6579 20.7601 13.0406 19.9426 13.0406 19.4557V17.8285C13.0406 5.53309 30.081 5.53309 30.081 17.8285V19.4557C30.081 19.9426 30.4637 20.7588 30.8855 21.6583C31.401 22.7583 31.9751 23.9833 31.9751 24.8789C31.9751 25.7746 31.4023 26.8342 30.8855 27.7871C30.4637 28.5656 30.0823 29.2712 30.0823 29.7593V30.3022C30.0823 30.7903 30.4637 31.6066 30.8855 32.5048C31.401 33.6048 31.9751 34.8298 31.9751 35.7254C31.9751 36.621 31.4023 37.846 30.8855 38.946C30.4637 39.8443 30.0823 40.6618 30.0823 41.1486V47.6602H30.6733C31.7091 47.6602 32.7024 48.0716 33.4348 48.804C34.1672 49.5364 34.5787 50.5298 34.5787 51.5655C34.5787 52.6013 34.1672 53.5946 33.4348 54.327C32.7024 55.0594 31.7091 55.4709 30.6733 55.4709H12.4483C11.4126 55.4709 10.4192 55.0594 9.68682 54.327C8.95442 53.5946 8.54297 52.6013 8.54297 51.5655C8.54297 50.5298 8.95442 49.5364 9.68682 48.804C10.4192 48.0716 11.4126 47.6602 12.4483 47.6602H13.0406ZM15.6442 47.6602V41.1486C15.6442 40.3064 15.3227 39.4993 15.1521 39.084C14.9719 38.6553 14.7809 38.2313 14.5793 37.8122L14.5767 37.8057L14.4531 37.5414C14.2188 37.0376 14.0287 36.6093 13.8959 36.2357C13.8332 36.0711 13.7852 35.9012 13.7527 35.728V35.7228C13.7579 35.6877 13.784 35.5314 13.8959 35.2151C14.0287 34.8415 14.2188 34.4132 14.4531 33.9094L14.5793 33.6399C14.7681 33.2364 14.9842 32.7769 15.1521 32.3681C15.3227 31.9515 15.6429 31.1444 15.6429 30.3022V29.7593C15.6429 28.8676 15.2914 28.0735 15.104 27.67C14.9165 27.2785 14.7177 26.8925 14.5078 26.5127L14.3867 26.2914C14.1924 25.9438 14.0177 25.5857 13.8634 25.2187C13.8164 25.1063 13.7794 24.99 13.7527 24.8711C13.7853 24.6997 13.8332 24.5315 13.8959 24.3686C14.0287 23.995 14.2188 23.5654 14.4531 23.0616L14.578 22.7948L14.5807 22.7922C14.7694 22.3886 14.9842 21.9304 15.1534 21.5203C15.3227 21.1051 15.6442 20.2979 15.6442 19.4557V17.8285C15.6442 15.3915 16.4682 13.7877 17.5071 12.7879C18.5797 11.7582 20.0455 11.2102 21.5608 11.2102C23.0774 11.2102 24.5419 11.7569 25.6133 12.7879C26.6534 13.7877 27.4787 15.3915 27.4787 17.8285V19.4557C27.4787 20.2979 27.799 21.1051 27.9695 21.5203C28.1374 21.9304 28.3522 22.3899 28.5423 22.7922V22.7935L28.6686 23.0616C28.9029 23.5654 29.093 23.995 29.2257 24.3686C29.3338 24.6719 29.3611 24.8282 29.3689 24.8711C29.3624 24.9063 29.3377 25.0143 29.2583 25.2187C29.1411 25.5142 28.9667 25.8566 28.735 26.2901L28.6139 26.5127C28.4251 26.8615 28.196 27.2859 28.0177 27.67C27.8289 28.0735 27.4774 28.8676 27.4774 29.7593V30.3022C27.4774 31.1457 27.799 31.9528 27.9695 32.3681C28.1374 32.7769 28.3535 33.2364 28.5423 33.6386L28.6686 33.9094C28.9029 34.4132 29.093 34.8415 29.2257 35.2151C29.3377 35.5301 29.3637 35.6864 29.3689 35.7228V35.728C29.3364 35.9012 29.2885 36.0711 29.2257 36.2357C29.093 36.6093 28.9029 37.0376 28.6686 37.5414L28.541 37.8122C28.3402 38.2316 28.1492 38.6557 27.9682 39.084C27.799 39.4993 27.4774 40.3064 27.4774 41.1486V47.6602H15.6442ZM55.4073 24.228C55.4072 26.7647 54.4814 29.2142 52.8037 31.1168C51.1259 33.0193 48.8115 34.2443 46.2948 34.5616V38.5477H50.2001C50.5454 38.5477 50.8765 38.6848 51.1206 38.929C51.3647 39.1731 51.5019 39.5042 51.5019 39.8495C51.5019 40.1947 51.3647 40.5258 51.1206 40.77C50.8765 41.0141 50.5454 41.1513 50.2001 41.1513H46.2948V47.6602C46.2948 48.0054 46.1576 48.3366 45.9135 48.5807C45.6693 48.8248 45.3382 48.962 44.993 48.962C44.6477 48.962 44.3166 48.8248 44.0725 48.5807C43.8283 48.3366 43.6912 48.0054 43.6912 47.6602V41.1513H39.7858C39.4406 41.1513 39.1095 41.0141 38.8653 40.77C38.6212 40.5258 38.484 40.1947 38.484 39.8495C38.484 39.5042 38.6212 39.1731 38.8653 38.929C39.1095 38.6848 39.4406 38.5477 39.7858 38.5477H43.6912V34.5616C41.0651 34.2275 38.6648 32.9059 36.9781 30.8656C35.2914 28.8252 34.445 26.2192 34.6107 23.5771C34.7765 20.9351 35.9421 18.4553 37.8706 16.6417C39.7991 14.8282 42.3457 13.817 44.993 13.8138C47.755 13.8138 50.4039 14.911 52.357 16.864C54.31 18.8171 55.4073 21.466 55.4073 24.228ZM52.8037 24.228C52.8037 26.2996 51.9808 28.2863 50.516 29.751C49.0512 31.2158 47.0645 32.0388 44.993 32.0388C42.9214 32.0388 40.9348 31.2158 39.47 29.751C38.0052 28.2863 37.1823 26.2996 37.1823 24.228C37.1823 22.1565 38.0052 20.1698 39.47 18.705C40.9348 17.2402 42.9214 16.4173 44.993 16.4173C47.0645 16.4173 49.0512 17.2402 50.516 18.705C51.9808 20.1698 52.8037 22.1565 52.8037 24.228Z" fill="white"/>
</svg>
