<svg width="59" height="60" viewBox="0 0 59 60" fill="none" xmlns="http://www.w3.org/2000/svg">
<g clip-path="url(#clip0_275_454)">
<path d="M13.0508 15.3692C13.0508 12.4592 14.2068 9.66834 16.2645 7.61065C18.3221 5.55297 21.113 4.39697 24.023 4.39697H38.6526C41.5626 4.39697 44.3534 5.55297 46.4111 7.61065C48.4688 9.66834 49.6248 12.4592 49.6248 15.3692V48.2857C49.6248 51.1958 48.4688 53.9866 46.4111 56.0443C44.3534 58.1019 41.5626 59.2579 38.6526 59.2579H24.023C21.113 59.2579 18.3221 58.1019 16.2645 56.0443C14.2068 53.9866 13.0508 51.1958 13.0508 48.2857V15.3692ZM24.023 8.05437C22.083 8.05437 20.2224 8.82503 18.8506 10.1968C17.4788 11.5686 16.7082 13.4292 16.7082 15.3692V48.2857C16.7082 50.2258 17.4788 52.0863 18.8506 53.4581C20.2224 54.8299 22.083 55.6005 24.023 55.6005H38.6526C40.5926 55.6005 42.4531 54.8299 43.8249 53.4581C45.1967 52.0863 45.9674 50.2258 45.9674 48.2857V15.3692C45.9674 13.4292 45.1967 11.5686 43.8249 10.1968C42.4531 8.82503 40.5926 8.05437 38.6526 8.05437H33.1665V13.5405C33.6515 13.5405 34.1166 13.7331 34.4596 14.0761C34.8025 14.419 34.9952 14.8842 34.9952 15.3692V22.684C34.9952 23.169 34.8025 23.6341 34.4596 23.977C34.1166 24.32 33.6515 24.5127 33.1665 24.5127V28.1701C33.1665 28.6551 32.9738 29.1202 32.6309 29.4631C32.2879 29.8061 31.8228 29.9988 31.3378 29.9988C30.8528 29.9988 30.3876 29.8061 30.0447 29.4631C29.7017 29.1202 29.5091 28.6551 29.5091 28.1701V24.5127C29.0241 24.5127 28.5589 24.32 28.216 23.977C27.873 23.6341 27.6804 23.169 27.6804 22.684V15.3692C27.6804 14.8842 27.873 14.419 28.216 14.0761C28.5589 13.7331 29.0241 13.5405 29.5091 13.5405V8.05437H24.023Z" fill="white"/>
</g>
<defs>
<clipPath id="clip0_275_454">
<rect width="58.5184" height="58.5184" fill="white" transform="translate(-0.00390625 0.795898)"/>
</clipPath>
</defs>
</svg>
